<svg xmlns="http://www.w3.org/2000/svg" viewBox="0 0 60 60" width="60" height="60">
  <!-- GitHub cat head shape -->
  <path d="M30 8 C18 8, 8 18, 8 30 C8 39, 14 47, 22 50 C23 50, 23 49, 23 48 L23 45 C17 46, 16 42, 16 42 C15 39, 13 38, 13 38 C11 37, 13 37, 13 37 C15 37, 16 39, 16 39 C18 42, 21 41, 23 41 C23 40, 24 39, 24 38 C20 37, 15 35, 15 27 C15 24, 16 22, 18 20 C18 19, 17 17, 18 14 C18 14, 20 14, 23 16 C25 15, 27 15, 30 15 C33 15, 35 15, 37 16 C40 14, 42 14, 42 14 C43 17, 42 19, 42 20 C44 22, 45 24, 45 27 C45 35, 40 37, 36 38 C37 39, 37 40, 37 43 L37 48 C37 49, 37 50, 38 50 C46 47, 52 39, 52 30 C52 18, 42 8, 30 8Z" fill="#222"/>
</svg>
